<svg width="21" height="19" viewBox="0 0 21 19" fill="none" xmlns="http://www.w3.org/2000/svg">
<g clip-path="url(#clip0_421_31)">
<rect x="0.324219" y="0.871582" width="20.1644" height="17.6149" rx="8.80743" fill="#FC4C4C"/>
<path d="M10.4063 6.74331C11.7984 6.74331 12.9268 5.75751 12.9268 4.54146C12.9268 3.3254 11.7984 2.3396 10.4063 2.3396C9.01423 2.3396 7.88574 3.3254 7.88574 4.54146C7.88574 5.75751 9.01423 6.74331 10.4063 6.74331Z" stroke="black" stroke-width="2" stroke-linecap="round" stroke-linejoin="round"/>
<path d="M10.4062 17.0185V6.74316" stroke="black" stroke-width="2" stroke-linecap="round" stroke-linejoin="round"/>
<path d="M4.52543 9.67896H2.00488C2.00488 11.6255 2.89007 13.4924 4.46572 14.8688C6.04137 16.2452 8.17841 17.0185 10.4067 17.0185C12.635 17.0185 14.772 16.2452 16.3477 14.8688C17.9233 13.4924 18.8085 11.6255 18.8085 9.67896H16.288" stroke="black" stroke-width="2" stroke-linecap="round" stroke-linejoin="round"/>
</g>
<defs>
<clipPath id="clip0_421_31">
<rect x="0.324219" y="0.871582" width="20.1644" height="17.6149" rx="8.80743" fill="white"/>
</clipPath>
</defs>
</svg>
