<svg width="15" height="15" viewBox="0 0 15 15" fill="none" xmlns="http://www.w3.org/2000/svg">
<g clip-path="url(#clip0_477_11)">
<path d="M8.90013 7.72085C9.22101 7.75507 9.54547 7.71677 9.84956 7.60878C10.1536 7.5008 10.4296 7.32588 10.657 7.09694L14.1281 3.62585C14.5321 3.22507 14.7607 2.6804 14.7637 2.11132C14.7669 1.83114 14.714 1.55317 14.608 1.29378C14.5021 1.03439 14.3453 0.798835 14.1469 0.601004C13.951 0.404316 13.7181 0.248465 13.4616 0.142492C13.205 0.0365182 12.93 -0.0174694 12.6525 -0.0163401H12.637C12.0681 -0.0131125 11.5237 0.21545 11.1229 0.619285L7.65185 4.09038C7.39981 4.34101 7.21361 4.65005 7.10984 4.99001C7.00606 5.32997 6.98791 5.69031 7.05701 6.03897C7.0736 6.10051 7.11296 6.15345 7.16712 6.18706C7.22128 6.22066 7.28618 6.23243 7.34869 6.21998C7.4112 6.20752 7.46664 6.17178 7.50378 6.11998C7.54092 6.06818 7.55699 6.00421 7.54873 5.94101C7.49564 5.67322 7.50963 5.39646 7.58946 5.13539C7.66928 4.87432 7.81246 4.63706 8.00623 4.44476L11.4773 0.97366C11.7851 0.663006 12.2035 0.487169 12.6408 0.484754C13.0978 0.484754 13.4869 0.648816 13.7929 0.95491C14.099 1.261 14.2664 1.67069 14.2636 2.1071C14.2608 2.54439 14.0848 2.96276 13.7742 3.27054L10.3031 6.74163C10.1282 6.91719 9.9162 7.0514 9.68269 7.13445C9.44919 7.21751 9.20007 7.24729 8.95357 7.22163C8.88758 7.21505 8.82166 7.23473 8.77007 7.2764C8.71848 7.31807 8.68539 7.37839 8.67795 7.44429C8.6743 7.47705 8.67717 7.5102 8.68637 7.54186C8.69558 7.57351 8.71094 7.60303 8.73159 7.62873C8.75223 7.65442 8.77775 7.67579 8.80667 7.6916C8.8356 7.70741 8.86736 7.71735 8.90013 7.72085V7.72085ZM7.09732 10.9093C7.36065 10.6493 7.55212 10.3255 7.65308 9.96942C7.75405 9.61339 7.76105 9.23727 7.67342 8.87772C7.66595 8.84555 7.65214 8.8152 7.6328 8.78843C7.61346 8.76166 7.58897 8.73901 7.56078 8.72182C7.53258 8.70462 7.50124 8.69322 7.46859 8.68828C7.43594 8.68333 7.40262 8.68495 7.3706 8.69304C7.33861 8.70074 7.30845 8.71467 7.28185 8.73404C7.25525 8.75341 7.23272 8.77783 7.21557 8.80591C7.19842 8.834 7.18697 8.86518 7.18188 8.8977C7.17679 8.93021 7.17816 8.9634 7.18592 8.99538C7.25304 9.27156 7.24747 9.56042 7.16976 9.83381C7.09205 10.1072 6.94484 10.3558 6.74248 10.5554L3.27139 14.0265C2.96365 14.3371 2.54521 14.513 2.10795 14.5154C1.89408 14.519 1.6817 14.4792 1.48365 14.3984C1.28561 14.3176 1.10602 14.1975 0.95576 14.0452C0.804402 13.8943 0.684816 13.7146 0.604065 13.5167C0.523313 13.3188 0.483034 13.1068 0.485604 12.893C0.488254 12.4557 0.664046 12.0372 0.97451 11.7291L4.4456 8.25804C4.62145 8.08012 4.83549 7.94456 5.0715 7.86164C5.30751 7.77872 5.5593 7.75061 5.80779 7.77944C5.8736 7.7856 5.93925 7.76605 5.99097 7.7249C6.0427 7.68375 6.0765 7.62418 6.08529 7.55866C6.09268 7.49261 6.07359 7.42633 6.03221 7.37432C5.99083 7.32231 5.93053 7.28881 5.86451 7.28116C5.54114 7.24402 5.21355 7.2807 4.9064 7.38844C4.59925 7.49618 4.32054 7.67218 4.09123 7.90319L0.620135 11.3743C0.216273 11.7752 -0.0122835 12.3198 -0.0154895 12.8888C-0.0186725 13.169 0.0342694 13.447 0.140215 13.7064C0.246161 13.9657 0.402965 14.2013 0.601385 14.3991C0.999823 14.7976 1.52951 15.0165 2.09576 15.0165H2.11123C2.68013 15.0133 3.22457 14.7847 3.62529 14.3809L7.09732 10.9093V10.9093Z" fill="black"/>
<path d="M10.6573 4.15871C10.634 4.13541 10.6064 4.11692 10.576 4.10431C10.5456 4.0917 10.513 4.08521 10.4801 4.08521C10.4472 4.08521 10.4146 4.0917 10.3842 4.10431C10.3538 4.11692 10.3261 4.13541 10.3029 4.15871L3.97476 10.4868C3.95149 10.5101 3.93303 10.5377 3.92044 10.5681C3.90785 10.5985 3.90137 10.6311 3.90137 10.664C3.90137 10.6969 3.90785 10.7295 3.92044 10.7599C3.93303 10.7903 3.95149 10.8179 3.97476 10.8412C3.99803 10.8645 4.02565 10.8829 4.05606 10.8955C4.08646 10.9081 4.11904 10.9146 4.15195 10.9146C4.18485 10.9146 4.21744 10.9081 4.24784 10.8955C4.27824 10.8829 4.30587 10.8645 4.32914 10.8412L10.6573 4.51308C10.6806 4.48983 10.699 4.46222 10.7117 4.43181C10.7243 4.40141 10.7308 4.36881 10.7308 4.3359C10.7308 4.30298 10.7243 4.27039 10.7117 4.23998C10.699 4.20958 10.6806 4.18196 10.6573 4.15871Z" fill="black"/>
</g>
<defs>
<clipPath id="clip0_477_11">
<rect width="15" height="15" fill="white"/>
</clipPath>
</defs>
</svg>
