<svg width="24" height="24" viewBox="0 0 24 24" fill="none" xmlns="http://www.w3.org/2000/svg">
<path d="M20.7778 11H5.22222C3.99492 11 3 11.8954 3 13V20C3 21.1046 3.99492 22 5.22222 22H20.7778C22.0051 22 23 21.1046 23 20V13C23 11.8954 22.0051 11 20.7778 11Z" stroke="#999090" stroke-width="2" stroke-linecap="round" stroke-linejoin="round"/>
<path d="M8 10V8.66667C8 8.22464 8.52678 7.80072 9.46447 7.48816C10.4021 7.17559 11.6739 7 13 7C14.3261 7 15.5979 7.17559 16.5355 7.48816C17.4732 7.80072 18 8.22464 18 8.66667V10" stroke="#999090" stroke-width="2" stroke-linecap="round" stroke-linejoin="round"/>
</svg>
