<svg width="32" height="32" viewBox="0 0 32 32" fill="none" xmlns="http://www.w3.org/2000/svg">
<path d="M13.26 11.916V13.752H11.916V15.996H13.26V22.6666H16.0227V15.996H17.876C17.876 15.996 18.0507 14.92 18.1347 13.7426H16.0333V12.2093C16.0333 11.9786 16.3347 11.6706 16.6333 11.6706H18.1373V9.33331H16.0907C13.192 9.33331 13.26 11.58 13.26 11.916Z" fill="#FAF0F0"/>
<path d="M6.99935 5.33332C6.29211 5.33332 5.61383 5.61427 5.11373 6.11437C4.61363 6.61447 4.33268 7.29275 4.33268 7.99999V24C4.33268 24.7072 4.61363 25.3855 5.11373 25.8856C5.61383 26.3857 6.29211 26.6667 6.99935 26.6667H22.9993C23.7066 26.6667 24.3849 26.3857 24.885 25.8856C25.3851 25.3855 25.666 24.7072 25.666 24V7.99999C25.666 7.29275 25.3851 6.61447 24.885 6.11437C24.3849 5.61427 23.7066 5.33332 22.9993 5.33332H6.99935ZM6.99935 2.66666H22.9993C24.4138 2.66666 25.7704 3.22856 26.7706 4.22875C27.7708 5.22895 28.3327 6.5855 28.3327 7.99999V24C28.3327 25.4145 27.7708 26.771 26.7706 27.7712C25.7704 28.7714 24.4138 29.3333 22.9993 29.3333H6.99935C5.58486 29.3333 4.22831 28.7714 3.22811 27.7712C2.22792 26.771 1.66602 25.4145 1.66602 24V7.99999C1.66602 6.5855 2.22792 5.22895 3.22811 4.22875C4.22831 3.22856 5.58486 2.66666 6.99935 2.66666V2.66666Z" fill="white"/>
</svg>
