<svg width="26" height="26" viewBox="0 0 26 26" fill="none" xmlns="http://www.w3.org/2000/svg">
<g clip-path="url(#clip0_443_6)">
<path d="M20.6667 8.15885C20.0347 8.44097 19.352 8.63281 18.6185 8.73438C19.3859 8.28299 19.9106 7.62283 20.1927 6.75391C19.4592 7.18273 18.7031 7.47049 17.9245 7.61719C17.2361 6.8724 16.3728 6.5 15.3346 6.5C14.3529 6.5 13.515 6.84701 12.821 7.54102C12.127 8.23503 11.7799 9.07292 11.7799 10.0547C11.7799 10.3819 11.8082 10.6528 11.8646 10.8672C10.4089 10.7882 9.0434 10.4214 7.76823 9.76693C6.49306 9.11241 5.40972 8.23785 4.51823 7.14323C4.19097 7.70747 4.02734 8.30556 4.02734 8.9375C4.02734 10.224 4.5408 11.2114 5.56771 11.8997C5.03733 11.8885 4.47309 11.7418 3.875 11.4596V11.4935C3.875 12.3398 4.15712 13.0931 4.72135 13.7533C5.28559 14.4134 5.9796 14.8225 6.80339 14.9805C6.47613 15.0707 6.18837 15.1159 5.9401 15.1159C5.7934 15.1159 5.57335 15.0933 5.27995 15.0482C5.51693 15.7591 5.93728 16.3459 6.54102 16.8086C7.14475 17.2713 7.8303 17.5082 8.59766 17.5195C7.28863 18.5352 5.81597 19.043 4.17969 19.043C3.88628 19.043 3.60417 19.026 3.33333 18.9922C5.00347 20.053 6.82031 20.5833 8.78385 20.5833C10.0477 20.5833 11.2326 20.383 12.3385 19.9824C13.4444 19.5818 14.3924 19.0458 15.1823 18.3743C15.9722 17.7029 16.6521 16.9299 17.222 16.0553C17.7919 15.1808 18.2151 14.2667 18.4915 13.3132C18.768 12.3596 18.9062 11.4089 18.9062 10.4609C18.9062 10.2578 18.9006 10.1055 18.8893 10.0039C19.6003 9.49609 20.1927 8.88108 20.6667 8.15885ZM25 4.875V21.125C25 22.4679 24.5232 23.6161 23.5697 24.5697C22.6161 25.5232 21.4679 26 20.125 26H3.875C2.53212 26 1.3839 25.5232 0.430339 24.5697C-0.52322 23.6161 -1 22.4679 -1 21.125V4.875C-1 3.53212 -0.52322 2.3839 0.430339 1.43034C1.3839 0.47678 2.53212 0 3.875 0H20.125C21.4679 0 22.6161 0.47678 23.5697 1.43034C24.5232 2.3839 25 3.53212 25 4.875Z" fill="white"/>
</g>
<defs>
<clipPath id="clip0_443_6">
<rect width="26" height="26" fill="white"/>
</clipPath>
</defs>
</svg>
