<svg width="26" height="26" viewBox="0 0 26 26" fill="none" xmlns="http://www.w3.org/2000/svg">
<g clip-path="url(#clip0_443_8)">
<path d="M4.09671 0.00650024C1.29607 0.00650024 -0.996094 2.29861 -0.996094 5.0993V20.9032C-0.996094 23.7038 1.29601 25.9951 4.09671 25.9951H19.9006C22.7012 25.9951 24.9925 23.7038 24.9925 20.9032V5.0993C24.9925 2.29866 22.7012 0.00650024 19.9006 0.00650024H4.09671ZM5.37763 4.29515C6.72047 4.29515 7.54761 5.1767 7.57314 6.3355C7.57314 7.46871 6.72042 8.37504 5.35165 8.37504H5.32646C4.00917 8.37504 3.15775 7.46876 3.15775 6.3355C3.15775 5.17673 4.03493 4.29515 5.3776 4.29515H5.37763ZM16.9497 9.71121C19.5323 9.71121 21.4683 11.3992 21.4683 15.0265V21.7982H17.5435V15.4806C17.5435 13.893 16.9754 12.8099 15.5551 12.8099C14.4708 12.8099 13.8245 13.5399 13.5407 14.2451C13.4371 14.4974 13.4116 14.8498 13.4116 15.2028V21.7982H9.4868C9.4868 21.7982 9.5383 11.0963 9.4868 9.98816H13.4124V11.6606C13.9339 10.8559 14.8669 9.71118 16.9497 9.71118V9.71121ZM3.38925 9.98902H7.31403V21.7983H3.38925V9.98902Z" fill="white"/>
</g>
<defs>
<clipPath id="clip0_443_8">
<rect width="26" height="26" fill="white"/>
</clipPath>
</defs>
</svg>
